<?xml version="1.0" encoding="iso-8859-1"?>
<!-- Generator: Adobe Illustrator 19.0.0, SVG Export Plug-In . SVG Version: 6.00 Build 0)  -->
<svg version="1.1" id="Capa_1" xmlns="http://www.w3.org/2000/svg" xmlns:xlink="http://www.w3.org/1999/xlink" x="0px" y="0px"
	 viewBox="0 0 512 512" style="enable-background:new 0 0 512 512;" xml:space="preserve">
<path style="fill:#FEA832;" d="M482,392v45c0,41.4-33.6,75-75,75H106c-41.4,0-76-33.6-76-75v-45H482z"/>
<path style="fill:#FE9923;" d="M482,392v45c0,41.4-33.6,75-75,75H256V392H482z"/>
<path style="fill:#713708;" d="M346,330h-60c-8.291,0-15-6.709-15-15s6.709-15,15-15h60c24.814,0,46-20.186,46-45
	c0-8.291,6.709-15,15-15s15,6.709,15,15C422,296.353,387.353,330,346,330z"/>
<path style="fill:#994C0F;" d="M301,285v92c0,8.399-6.599,15-15,15h-90c-8.401,0-15-6.601-15-15v-62c0-8.401-6.599-15-15-15
	c-41.4,0-75-33.6-75-75v-60c0-8.401,6.599-15,15-15h60c8.401,0,15,6.599,15,15v45h45c10.499,0,20.7,2.1,30,6.299
	C282.4,227.699,301,254.099,301,285z"/>
<path style="fill:#713708;" d="M301,285v92c0,8.399-6.599,15-15,15h-30V216.299C282.4,227.699,301,254.099,301,285z"/>
<path style="fill:#10BB67;" d="M467,270H346c-24.814,0-45-20.186-45-45s20.186-45,45-45h17.509c6.973-34.189,37.266-60,73.491-60
	c41.353,0,75,33.647,75,75c0,5.728-0.645,11.411-1.919,16.948C511.355,216.167,512,220.532,512,225C512,249.814,491.814,270,467,270
	z"/>
<path style="fill:#32D736;" d="M299.801,92.1C295.6,66.899,278.5,46.199,256,36.299C242.5,30.3,227.199,28.5,211,31.8
	C191.8,12.299,165.399,0,136,0C82.599,0,37.8,40.199,31.199,92.1C13.2,97.5,0,114.3,0,136.5c0,24,19.501,43.5,43.5,43.5h244
	c24,0,43.5-19.501,43.5-46.5C331,114.3,318.1,97.8,299.801,92.1z"/>
<path style="fill:#10BB67;" d="M331,133.5c0,26.999-19.501,46.5-43.5,46.5H256V36.299C278.5,46.2,295.6,66.9,299.801,92.1
	C318.1,97.8,331,114.3,331,133.5z"/>
<path style="fill:#FEDB41;" d="M512,392c0,16.5-13.5,30-30,30H30c-16.5,0-30-13.5-30-30s13.5-30,30-30h452
	C498.5,362,512,375.5,512,392z"/>
<path style="fill:#FFBC33;" d="M512,392c0,16.5-13.5,30-30,30H256v-60h226C498.5,362,512,375.5,512,392z"/>
<g>
</g>
<g>
</g>
<g>
</g>
<g>
</g>
<g>
</g>
<g>
</g>
<g>
</g>
<g>
</g>
<g>
</g>
<g>
</g>
<g>
</g>
<g>
</g>
<g>
</g>
<g>
</g>
<g>
</g>
</svg>
