<?xml version="1.0" encoding="iso-8859-1"?>
<!-- Generator: Adobe Illustrator 19.0.0, SVG Export Plug-In . SVG Version: 6.00 Build 0)  -->
<svg version="1.1" id="Capa_1" xmlns="http://www.w3.org/2000/svg" xmlns:xlink="http://www.w3.org/1999/xlink" x="0px" y="0px"
	 viewBox="0 0 511.999 511.999" style="enable-background:new 0 0 511.999 511.999;" xml:space="preserve">
<g>
	<g>
		<path d="M465.966,361.991H300.978v-29.998h44.997c36.217,0,66.517-25.806,73.486-59.996h46.506
			c29.697,0,53.097-28.352,44.072-58.057c1.278-5.534,1.925-11.209,1.925-16.938c0-41.459-34.533-74.994-75.995-74.994
			c-36.216,0-66.518,25.807-73.488,59.996h-16.506c-24.811,0-44.997,20.185-44.997,44.997s20.186,44.897,44.997,44.897h42.417
			c-6.192,17.457-22.863,30.098-42.417,30.098h-44.997v-14.999c0-41.352-33.643-74.995-74.995-74.995h-44.997v-29.998h106.388
			c24.042,0,43.601-19.56,43.601-43.601v-2.792c0-19.709-13.144-36.404-31.127-41.783c-6.98-40.385-45.861-71.571-89.698-62.138
			C190.214,11.266,163.891,0.018,135.99,0.018c-54.286,0-98.791,42.51-105.183,93.912C12.989,99.41,0,116.022,0,135.612v2.792
			c0,24.041,19.56,43.601,43.601,43.601h47.393v44.997c0,41.352,33.643,74.995,74.994,74.995c8.27,0,15,6.729,15,14.999v44.997
			H44.997C20.186,361.992,0,382.178,0,406.989c0,19.975,13.086,36.941,31.132,42.801c6.084,34.639,37.076,62.191,74.861,62.191
			h299.978c36.968,0,67.753-26.894,73.87-62.141c6.725-2.122,12.947-5.776,18.202-10.799c8.977-8.581,13.921-19.965,13.921-32.054
			s-4.944-23.472-13.921-32.054C489.312,366.588,477.919,361.991,465.966,361.991z M345.975,242.001
			c-8.27,0-14.999-6.729-14.999-14.999s6.729-14.999,14.999-14.999h29.998c8.283,0,14.999-6.716,14.999-14.999
			c0-24.811,20.186-44.997,44.997-44.997c24.933,0,45.997,20.605,45.997,44.997c0,4.524-0.667,8.983-1.981,13.255
			c-1.075,3.493-0.837,7.257,0.667,10.586c4.823,10.679-4.275,21.155-14.685,21.155H345.975z M43.601,152.007
			c-7.5,0-13.603-6.102-13.603-13.603v-2.792c0-7.5,6.103-13.603,13.603-13.603c11.071,0,16.395-7.673,16.395-14.999
			c0-41.735,34.802-76.994,75.995-76.994c40.651,0,74.995,35.259,74.995,76.994c0,8.283,6.716,14.999,14.999,14.999
			c8.283,0,14.999-6.716,14.999-14.999c0-16.401-3.712-32.315-10.725-46.769c22.476,2.333,40.723,22.797,40.723,46.769
			c0,7.221,5.198,14.999,16.395,14.999c7.501,0,13.603,6.103,13.603,13.603v2.792c0,7.5-6.103,13.603-13.603,13.603H43.601z
			 M165.987,271.999c-24.811,0-44.996-20.186-44.996-44.997v-44.997h29.998v44.997c0,8.283,6.716,14.999,14.999,14.999h59.996
			c24.811,0,44.997,20.186,44.997,44.997v74.995h-59.996v-44.997C210.985,292.184,190.798,271.999,165.987,271.999z
			 M405.971,481.983H105.992c-19.589,0-36.788-12.817-43.262-30.098h385.667C442.207,469.345,425.526,481.983,405.971,481.983z
			 M465.966,421.988H44.997c-8.27,0-14.999-6.729-14.999-14.999s6.729-14.999,14.999-14.999c7.589,0,400.269,0,420.97,0
			c8.522,0,15.999,7.01,15.999,14.999C481.965,414.979,474.489,421.988,465.966,421.988z"/>
	</g>
</g>
<g>
</g>
<g>
</g>
<g>
</g>
<g>
</g>
<g>
</g>
<g>
</g>
<g>
</g>
<g>
</g>
<g>
</g>
<g>
</g>
<g>
</g>
<g>
</g>
<g>
</g>
<g>
</g>
<g>
</g>
</svg>
